<?xml version="1.0" encoding="UTF-8"?><svg id="_0" xmlns="http://www.w3.org/2000/svg" viewBox="0 0 2166.02 2161.24"><defs><style>.cls-1{fill:#000;stroke-width:0px;}</style></defs><path class="cls-1" d="M1983.51,900.62h-506.81c-99.41,0-180,80.59-180,180s80.59,180,180,180h506.81c99.41,0,180-80.59,180-180s-80.59-180-180-180Z"/><path class="cls-1" d="M1965.67,1703.6c22.04-29.87,35.08-66.79,35.08-106.76,0-99.41-80.59-180-180-180-59.44,0-112.14,28.82-144.92,73.24,0,0,0,0,0,0-129.96,187.64-346.78,310.55-592.32,310.55-397.65,0-720-322.35-720-720s322.35-720,720-720c245.53,0,462.36,122.9,592.32,310.55,0,0,0,0,0,0,32.78,44.42,85.48,73.24,144.92,73.24,99.41,0,180-80.59,180-180,0-36.86-11.09-71.13-30.1-99.67l.1-.07s0,0,0,0C1775.67,184.2,1451.03.62,1083.51.62,487.04.62,3.51,484.15,3.51,1080.62s483.53,1080,1080,1080c364.42,0,686.67-180.49,882.26-456.95l-.1-.07Z"/></svg>